# xmcd CD database file
#
# Track frame offsets:
#	150
#	8812
#	18186
#	25837
#	36714
#	52991
#	65441
#	79991
#	90791
#	100836
#	111561
#	124310
#	131234
#	144357
#	149083
#
# Disc length: 2127 seconds
#
# Revision: 0
# Processed by: cddbd v1.5.1PL2 Copyright (c) Steve Scherf et al.
# Submitted via: CDex 1.51
#
DISCID=d3084d0f
DTITLE=Freilicht-und Waldbühne Osterwald e.V. - Kultur in der Nacht
DYEAR=2004
DGENRE=Kinderlieder
TTITLE0=Du bist Prinzessin im Morgenland
TTITLE1=Kugel scheine
TTITLE2=Dieses Märchen aus 1001 Nacht
TTITLE3=Pipi Langstrumpf auf großer Fahrt
TTITLE4=Pipi Langstrumpf Abendlied
TTITLE5=Titellied Ronja und die Räuber
TTITLE6=Druden ziehen Kreise
TTITLE7=Mattisräuberlied
TTITLE8=Ich habe Euch zum Fressen gern
TTITLE9=Sie ist die Königin
TTITLE10=König der Löwen "Schleim, Schleim"
TTITLE11=König der Löwen "Auf der Jagd"
TTITLE12=König der Löwen "Ich möchte jetzt wirklich König sein"
TTITLE13=König der Löwen Hen wenna ma baya"
TTITLE14=König der Löwen "Der neue König"
EXTD=YEAR: 2004
EXTT0=
EXTT1=
EXTT2=
EXTT3=
EXTT4=
EXTT5=
EXTT6=
EXTT7=
EXTT8=
EXTT9=
EXTT10=
EXTT11=
EXTT12=
EXTT13=
EXTT14=
PLAYORDER=
